<?xml version="1.0" standalone="no"?>
<!DOCTYPE svg PUBLIC "-//W3C//DTD SVG 20010904//EN"
 "http://www.w3.org/TR/2001/REC-SVG-20010904/DTD/svg10.dtd">
<svg version="1.0" xmlns="http://www.w3.org/2000/svg"
 width="567.000000pt" height="440.000000pt" viewBox="0 0 567.000000 440.000000"
 preserveAspectRatio="xMidYMid meet">

<g transform="translate(0.000000,440.000000) scale(0.100000,-0.100000)"
fill="#000000" stroke="none">
<path d="M1997 3272 l-837 -837 115 -115 115 -115 720 720 c396 396 723 721
727 722 5 2 317 -306 695 -684 378 -379 702 -703 720 -720 l34 -33 114 115
113 114 -834 835 c-458 460 -836 836 -839 836 -3 0 -382 -377 -843 -838z m543
334 c0 -3 -4 -8 -10 -11 -5 -3 -10 -1 -10 4 0 6 5 11 10 11 6 0 10 -2 10 -4z
m180 -6 c0 -5 -2 -10 -4 -10 -3 0 -8 5 -11 10 -3 6 -1 10 4 10 6 0 11 -4 11
-10z"/>
<path d="M2130 2875 l-705 -705 705 -705 705 -705 705 705 705 705 -320 320
c-244 244 -323 318 -332 309 -9 -9 -11 -7 -7 7 4 14 -86 109 -373 396 l-378
378 -705 -705z m1240 135 c0 -5 -2 -10 -4 -10 -3 0 -8 5 -11 10 -3 6 -1 10 4
10 6 0 11 -4 11 -10z m-790 -30 c0 -5 -4 -10 -10 -10 -5 0 -10 5 -10 10 0 6 5
10 10 10 6 0 10 -4 10 -10z m440 -130 c0 -5 -2 -10 -4 -10 -3 0 -8 5 -11 10
-3 6 -1 10 4 10 6 0 11 -4 11 -10z m-705 -420 c-3 -5 -11 -10 -16 -10 -6 0 -7
5 -4 10 3 6 11 10 16 10 6 0 7 -4 4 -10z m68 -5 c4 -8 3 -16 -1 -19 -4 -3 -9
4 -9 15 -2 23 3 25 10 4z m1057 -571 c0 -8 -4 -12 -10 -9 -5 3 -10 10 -10 16
0 5 5 9 10 9 6 0 10 -7 10 -16z"/>
<path d="M1272 2077 c-62 -62 -112 -115 -112 -119 0 -9 1667 -1678 1676 -1678
13 0 144 134 144 147 0 8 3 12 8 9 4 -2 351 339 770 759 l763 763 -116 117
c-105 105 -135 126 -135 92 0 -6 45 -57 100 -112 l100 -100 -810 -810 c-445
-446 -815 -812 -821 -814 -6 -2 -378 363 -825 810 l-814 814 106 106 c85 85
103 108 92 117 -11 9 -37 -12 -126 -101z"/>
</g>
</svg>
